<svg width="18" height="20" viewBox="0 0 18 20" fill="none" xmlns="http://www.w3.org/2000/svg">
<path d="M13.002 13.0826L13.002 13.0825C13.0684 12.9969 13.1529 12.927 13.2494 12.8779C13.3459 12.8288 13.4522 12.8017 13.5604 12.7985C13.6687 12.7953 13.7763 12.8161 13.8756 12.8594C13.9741 12.9024 14.0619 12.9664 14.1329 13.047C14.5188 13.43 14.9033 13.8148 15.2876 14.1996C15.504 14.4162 15.7203 14.6327 15.9369 14.8489L15.8839 14.902L15.9369 14.8489C16.2299 15.1414 16.5235 15.4333 16.8179 15.7244C16.8972 15.7914 16.9612 15.8747 17.0055 15.9686C17.0503 16.0635 17.074 16.1669 17.075 16.2718C17.0759 16.3767 17.0542 16.4806 17.0111 16.5763C16.9685 16.6712 16.9059 16.7557 16.8277 16.8243C15.933 17.7173 15.0376 18.6096 14.1416 19.5012C14.0173 19.6452 13.8422 19.7358 13.6527 19.754C13.4623 19.7723 13.2721 19.7161 13.1222 19.5972L13.1221 19.5971C13.04 19.5316 12.9733 19.4491 12.9263 19.3552C12.8794 19.2614 12.8535 19.1585 12.8503 19.0536C12.8471 18.9487 12.8668 18.8444 12.908 18.7479C12.9489 18.6521 13.01 18.5663 13.0871 18.4963C13.4271 18.151 13.7704 17.8088 14.1134 17.4669C14.2665 17.3144 14.4194 17.162 14.572 17.0093L14.625 17.0623L14.572 17.0093C14.5722 17.009 14.5725 17.0088 14.5728 17.0085H14.4946C11.1054 17.0085 7.71623 17.0082 4.32704 17.0076C3.56567 17.0214 2.8225 16.7742 2.2211 16.3071C1.61962 15.8399 1.1962 15.1809 1.02128 14.4397L13.002 13.0826ZM13.002 13.0826C12.8891 13.2285 12.8362 13.412 12.8542 13.5957C12.8721 13.7784 12.9588 13.9474 13.0967 14.0685C13.4634 14.4376 13.8318 14.8052 14.2137 15.1864C14.334 15.3065 14.4557 15.4279 14.5791 15.5512L14.4892 15.5512C11.3379 15.5512 8.18669 15.5512 5.03545 15.5511C4.95584 15.5511 4.87679 15.5517 4.79813 15.5524C4.6048 15.5541 4.41376 15.5557 4.22218 15.5472L4.22218 15.5471L4.22028 15.5471C3.92154 15.5413 3.62862 15.4635 3.36646 15.3201C3.1043 15.1768 2.88066 14.9722 2.7146 14.7238L2.71444 14.7235C2.48588 14.3845 2.37027 13.9819 2.38418 13.5733L2.38418 13.5709C2.38579 12.6599 2.38567 11.749 2.38384 10.838C2.39664 10.6796 2.35817 10.5212 2.27407 10.3863C2.18937 10.2504 2.06295 10.1456 1.91372 10.0876L1.91373 10.0875L1.91262 10.0871C1.7982 10.0447 1.67498 10.0316 1.5542 10.049C1.43341 10.0663 1.31889 10.1137 1.22109 10.1867C1.12328 10.2596 1.04529 10.3559 0.99424 10.4668C0.943575 10.5768 0.921029 10.6976 0.928607 10.8184C0.922685 11.7775 0.924876 12.7365 0.929298 13.6952L13.002 13.0826Z" fill="#CCCCCC" stroke="#CCCCCC" stroke-width="0.15"/>
<path d="M13.8125 3.68638L13.8126 3.68638C14.6192 3.6972 15.3925 4.00969 15.9801 4.56229C16.5677 5.11488 16.9271 5.86751 16.9875 6.6719C17.041 7.3807 17.0311 8.09415 17.0212 8.80371C17.0163 9.15719 17.0114 9.5097 17.0144 9.86019L16.9394 9.86082M13.8125 3.68638L3.35069 5.10274C3.3491 5.10147 3.34755 5.10023 3.34605 5.09904C3.32905 5.08545 3.31661 5.07505 3.30734 5.06495C3.29826 5.05506 3.29653 5.04994 3.29624 5.04872C3.29619 5.04853 3.29615 5.04833 3.29613 5.04806C3.29611 5.04775 3.29612 5.04735 3.29619 5.04677C3.29635 5.04553 3.29695 5.04241 3.29952 5.03709C3.29985 5.03641 3.30012 5.03594 3.3003 5.03565C3.3024 5.03471 3.30869 5.03281 3.32323 5.03254C3.3358 5.03231 3.34895 5.03323 3.36594 5.03441C3.36916 5.03463 3.3725 5.03487 3.37601 5.0351C3.39526 5.03641 3.41996 5.03785 3.44441 5.03549C3.45491 5.03493 3.46543 5.03489 3.47594 5.03538L3.47593 5.03546L3.47942 5.03546C6.89704 5.03446 10.3147 5.03474 13.7323 5.0363L13.7328 5.03629C13.9788 5.03456 14.2227 5.08154 14.4504 5.17452C14.6781 5.26751 14.8852 5.40466 15.0596 5.57807L15.0602 5.57859C15.2605 5.77375 15.4179 6.00855 15.5222 6.268C15.6266 6.52745 15.6757 6.80583 15.6664 7.08534L15.6663 7.08534L15.6663 7.08819C15.6692 7.7015 15.6686 8.31467 15.6681 8.92809C15.6678 9.22591 15.6675 9.52379 15.6676 9.82178C15.6614 9.91157 15.6732 10.0017 15.7024 10.0869C15.7319 10.1729 15.7785 10.2521 15.8394 10.3197C15.9003 10.3873 15.9743 10.4418 16.0568 10.48C16.1394 10.5183 16.2288 10.5394 16.3197 10.5422C16.4107 10.5449 16.5012 10.5293 16.5859 10.4961C16.6706 10.463 16.7478 10.413 16.8127 10.3493C16.8776 10.2855 16.9289 10.2093 16.9636 10.1252C16.9982 10.0411 17.0155 9.95085 17.0144 9.85989L16.9394 9.86082M13.8125 3.68638C12.623 3.67142 11.433 3.67496 10.2436 3.67849C9.74894 3.67996 9.25438 3.68142 8.76003 3.68156L8.76002 3.67743L8.68518 3.67747C6.94919 3.67839 5.21318 3.6779 3.47716 3.67602C3.45735 3.676 3.43596 3.67797 3.41852 3.67958C3.41544 3.67986 3.41248 3.68013 3.40967 3.68038C3.38871 3.68224 3.37281 3.68316 3.35941 3.68217C3.34637 3.68121 3.3408 3.6787 3.33867 3.67737L3.3386 3.67732C3.33767 3.67675 3.33425 3.67464 3.33045 3.66465L3.33045 3.66465C3.32905 3.66097 3.32893 3.65913 3.32892 3.65875L3.32904 3.65793C3.32945 3.6566 3.33152 3.65171 3.34027 3.64253C3.34917 3.63319 3.36075 3.62365 3.37658 3.61103C3.37767 3.61016 3.3788 3.60927 3.37994 3.60836C3.39367 3.59744 3.41117 3.58352 3.42611 3.56853L3.42612 3.56851C3.63725 3.35645 3.84959 3.14456 4.06203 2.93256C4.31624 2.67888 4.57059 2.42506 4.82318 2.17065C4.89569 2.11392 4.95638 2.04351 5.00182 1.9634C5.04809 1.88181 5.07761 1.7918 5.08863 1.69865C5.09965 1.6055 5.09195 1.51108 5.066 1.42095C5.04004 1.33081 4.99634 1.24676 4.93746 1.17374L4.93748 1.17373L4.93637 1.17242C4.87072 1.09472 4.7889 1.03231 4.69661 0.989543C4.60432 0.946779 4.5038 0.924699 4.40209 0.924848C4.30037 0.924997 4.19992 0.947372 4.10776 0.990406C4.01662 1.03296 3.93578 1.09469 3.87074 1.17137C2.97987 2.05927 2.09019 2.94836 1.20171 3.83866C1.12984 3.90375 1.07235 3.98315 1.03293 4.07177C0.99324 4.16102 0.972769 4.25762 0.972852 4.3553C0.972934 4.45297 0.993568 4.54954 1.03341 4.63872M13.8125 3.68638L1.03341 4.63872M16.9394 9.86082C16.9404 9.94167 16.925 10.0219 16.8942 10.0966C16.8634 10.1714 16.8178 10.2391 16.7601 10.2958C16.7024 10.3524 16.6339 10.3968 16.5586 10.4263C16.4833 10.4558 16.4028 10.4697 16.322 10.4672C16.2412 10.4648 16.1617 10.446 16.0884 10.412C16.015 10.378 15.9493 10.3295 15.8951 10.2695C15.841 10.2094 15.7996 10.139 15.7734 10.0625C15.7472 9.98606 15.7367 9.90506 15.7426 9.82443L15.9287 4.61693C16.5027 5.15669 16.8538 5.89184 16.9127 6.67755C16.966 7.38315 16.9561 8.09057 16.9463 8.79804C16.9413 9.15236 16.9364 9.5067 16.9394 9.86082ZM1.03341 4.63872C1.07297 4.72726 1.13058 4.80655 1.20255 4.87152C2.10149 5.77153 3.0014 6.67059 3.90225 7.5687C3.96479 7.63498 4.03984 7.68821 4.12308 7.72531C4.20671 7.76257 4.29692 7.78281 4.38845 7.78484C4.47998 7.78687 4.57099 7.77065 4.65619 7.73712C4.74088 7.7038 4.81813 7.65403 4.88349 7.5907C4.95214 7.52908 5.00679 7.45345 5.04377 7.36892C5.08095 7.2839 5.09938 7.19185 5.09778 7.09906C5.09619 7.00628 5.07461 6.91492 5.03453 6.83122C4.99496 6.7486 4.93827 6.67536 4.86824 6.61635C4.6623 6.4096 4.45614 6.20352 4.25004 5.99751C3.96599 5.71357 3.68207 5.42976 3.39904 5.14451L1.03341 4.63872Z" fill="#CCCCCC" stroke="#CCCCCC" stroke-width="0.15"/>
</svg>
